<?xml version="1.0" encoding="UTF-8" standalone="no"?>
<!-- Created with Inkscape (http://www.inkscape.org/) -->

<svg
   xmlns:dc="http://purl.org/dc/elements/1.1/"
   xmlns:cc="http://creativecommons.org/ns#"
   xmlns:rdf="http://www.w3.org/1999/02/22-rdf-syntax-ns#"
   xmlns:svg="http://www.w3.org/2000/svg"
   xmlns="http://www.w3.org/2000/svg"
   xmlns:sodipodi="http://sodipodi.sourceforge.net/DTD/sodipodi-0.dtd"
   xmlns:inkscape="http://www.inkscape.org/namespaces/inkscape"
   width="15.804444mm"
   height="15.804444mm"
   viewBox="0 0 56 55.999999"
   id="svg2"
   version="1.1"
   inkscape:version="0.91 r13725"
   sodipodi:docname="red-cross.svg"
   inkscape:export-filename="/home/hemantkumar/lightdm-webkit-nvidia/assets/ui/red-cross.png"
   inkscape:export-xdpi="38.57"
   inkscape:export-ydpi="38.57">
  <defs
     id="defs4" />
  <sodipodi:namedview
     id="base"
     pagecolor="#f8f8f8"
     bordercolor="#666666"
     borderopacity="1.0"
     inkscape:pageopacity="0"
     inkscape:pageshadow="2"
     inkscape:zoom="4.2038756"
     inkscape:cx="41.291176"
     inkscape:cy="32.101987"
     inkscape:document-units="px"
     inkscape:current-layer="layer1"
     showgrid="false"
     inkscape:snap-object-midpoints="true"
     inkscape:snap-center="false"
     inkscape:object-nodes="false"
     inkscape:snap-smooth-nodes="true"
     fit-margin-top="0"
     fit-margin-left="0"
     fit-margin-right="0"
     fit-margin-bottom="0"
     inkscape:window-width="1366"
     inkscape:window-height="703"
     inkscape:window-x="0"
     inkscape:window-y="0"
     inkscape:window-maximized="1" />
  <metadata
     id="metadata7">
    <rdf:RDF>
      <cc:Work
         rdf:about="">
        <dc:format>image/svg+xml</dc:format>
        <dc:type
           rdf:resource="http://purl.org/dc/dcmitype/StillImage" />
        <dc:title></dc:title>
      </cc:Work>
    </rdf:RDF>
  </metadata>
  <g
     inkscape:label="Layer 1"
     inkscape:groupmode="layer"
     id="layer1"
     transform="translate(-174.28516,-183.79102)">
    <path
       style="opacity:1;fill:#ffffff;fill-opacity:1;stroke:none;stroke-width:1;stroke-linecap:butt;stroke-linejoin:round;stroke-miterlimit:4;stroke-dasharray:none;stroke-dashoffset:0;stroke-opacity:1"
       d="m 265.56011,187.10001 a 24.452648,24.452648 0 0 0 -1.72852,0.0606 24.452648,24.452648 0 0 0 -2.42773,0.29492 24.452648,24.452648 0 0 0 -2.38477,0.53516 24.452648,24.452648 0 0 0 -2.31836,0.77148 24.452648,24.452648 0 0 0 -2.23242,0.99805 24.452648,24.452648 0 0 0 -2.11914,1.21679 24.452648,24.452648 0 0 0 -1.98828,1.42188 24.452648,24.452648 0 0 0 -1.83594,1.61328 24.452648,24.452648 0 0 0 -1.66602,1.78711 24.452648,24.452648 0 0 0 -1.48046,1.94727 24.452648,24.452648 0 0 0 -1.27735,2.08398 24.452648,24.452648 0 0 0 -1.0625,2.19922 24.452648,24.452648 0 0 0 -0.83789,2.29687 24.452648,24.452648 0 0 0 -0.60547,2.36914 24.452648,24.452648 0 0 0 -0.36523,2.41602 24.452648,24.452648 0 0 0 -0.1211,2.44141 24.452648,24.452648 0 0 0 0.0606,1.72851 24.452648,24.452648 0 0 0 0.29492,2.42774 24.452648,24.452648 0 0 0 0.53516,2.38476 24.452648,24.452648 0 0 0 0.76953,2.32031 24.452648,24.452648 0 0 0 1,2.23047 24.452648,24.452648 0 0 0 1.21484,2.11914 24.452648,24.452648 0 0 0 1.42188,1.98828 24.452648,24.452648 0 0 0 1.61328,1.83594 24.452648,24.452648 0 0 0 1.78906,1.66797 24.452648,24.452648 0 0 0 1.94532,1.47852 24.452648,24.452648 0 0 0 2.08398,1.27734 24.452648,24.452648 0 0 0 2.20117,1.0625 24.452648,24.452648 0 0 0 2.29492,0.83789 24.452648,24.452648 0 0 0 2.36914,0.60547 24.452648,24.452648 0 0 0 2.41602,0.36523 24.452648,24.452648 0 0 0 2.44141,0.12305 24.452648,24.452648 0 0 0 1.73046,-0.0625 24.452648,24.452648 0 0 0 2.42579,-0.29492 24.452648,24.452648 0 0 0 2.38476,-0.53516 24.452648,24.452648 0 0 0 2.32031,-0.76953 24.452648,24.452648 0 0 0 2.23047,-0.99805 24.452648,24.452648 0 0 0 2.1211,-1.21679 24.452648,24.452648 0 0 0 1.98828,-1.42188 24.452648,24.452648 0 0 0 1.83594,-1.61328 24.452648,24.452648 0 0 0 1.66601,-1.78906 24.452648,24.452648 0 0 0 1.47852,-1.94531 24.452648,24.452648 0 0 0 1.27734,-2.08399 24.452648,24.452648 0 0 0 1.06445,-2.20117 24.452648,24.452648 0 0 0 0.83789,-2.29492 24.452648,24.452648 0 0 0 0.60352,-2.36914 24.452648,24.452648 0 0 0 0.36523,-2.41602 24.452648,24.452648 0 0 0 0.12305,-2.4414 24.452648,24.452648 0 0 0 -0.0606,-1.73047 24.452648,24.452648 0 0 0 -0.29492,-2.42578 24.452648,24.452648 0 0 0 -0.53515,-2.38477 24.452648,24.452648 0 0 0 -0.77149,-2.32031 24.452648,24.452648 0 0 0 -0.99805,-2.23047 24.452648,24.452648 0 0 0 -1.21679,-2.1211 24.452648,24.452648 0 0 0 -1.42188,-1.98828 24.452648,24.452648 0 0 0 -1.61328,-1.83593 24.452648,24.452648 0 0 0 -1.78711,-1.66602 24.452648,24.452648 0 0 0 -1.94726,-1.47851 24.452648,24.452648 0 0 0 -2.08203,-1.27735 24.452648,24.452648 0 0 0 -2.20118,-1.06445 24.452648,24.452648 0 0 0 -2.29687,-0.83789 24.452648,24.452648 0 0 0 -2.36719,-0.60352 24.452648,24.452648 0 0 0 -2.41797,-0.36523 24.452648,24.452648 0 0 0 -2.4414,-0.12305 z"
       id="path4175"
       inkscape:connector-curvature="0" />
    <path
       style="opacity:1;fill:#ff0000;fill-opacity:1;stroke:none;stroke-width:1;stroke-linecap:butt;stroke-linejoin:round;stroke-miterlimit:4;stroke-dasharray:none;stroke-dashoffset:0;stroke-opacity:1"
       d="m 202.28516,183.79102 a 28,28 0 0 0 -28,28 28,28 0 0 0 28,28 28,28 0 0 0 28,-28 28,28 0 0 0 -28,-28 z m 0,3.54687 a 24.452648,24.452648 0 0 1 2.4414,0.12305 24.452648,24.452648 0 0 1 2.41797,0.36523 24.452648,24.452648 0 0 1 2.36719,0.60352 24.452648,24.452648 0 0 1 2.29687,0.83789 24.452648,24.452648 0 0 1 2.20118,1.06445 24.452648,24.452648 0 0 1 2.08203,1.27735 24.452648,24.452648 0 0 1 1.94726,1.47851 24.452648,24.452648 0 0 1 1.78711,1.66602 24.452648,24.452648 0 0 1 1.61328,1.83593 24.452648,24.452648 0 0 1 1.42188,1.98828 24.452648,24.452648 0 0 1 1.21679,2.1211 24.452648,24.452648 0 0 1 0.99805,2.23047 24.452648,24.452648 0 0 1 0.77149,2.32031 24.452648,24.452648 0 0 1 0.53515,2.38477 24.452648,24.452648 0 0 1 0.29492,2.42578 24.452648,24.452648 0 0 1 0.0606,1.73047 24.452648,24.452648 0 0 1 -0.12305,2.4414 24.452648,24.452648 0 0 1 -0.36523,2.41602 24.452648,24.452648 0 0 1 -0.60352,2.36914 24.452648,24.452648 0 0 1 -0.83789,2.29492 24.452648,24.452648 0 0 1 -1.06445,2.20117 24.452648,24.452648 0 0 1 -1.27734,2.08399 24.452648,24.452648 0 0 1 -1.47852,1.94531 24.452648,24.452648 0 0 1 -1.66601,1.78906 24.452648,24.452648 0 0 1 -1.83594,1.61328 24.452648,24.452648 0 0 1 -1.98828,1.42188 24.452648,24.452648 0 0 1 -2.1211,1.21679 24.452648,24.452648 0 0 1 -2.23047,0.99805 24.452648,24.452648 0 0 1 -2.32031,0.76953 24.452648,24.452648 0 0 1 -2.38476,0.53516 24.452648,24.452648 0 0 1 -2.42579,0.29492 24.452648,24.452648 0 0 1 -1.73046,0.0625 24.452648,24.452648 0 0 1 -2.44141,-0.12305 24.452648,24.452648 0 0 1 -2.41602,-0.36523 24.452648,24.452648 0 0 1 -2.36914,-0.60547 24.452648,24.452648 0 0 1 -2.29492,-0.83789 24.452648,24.452648 0 0 1 -2.20117,-1.0625 24.452648,24.452648 0 0 1 -2.08398,-1.27734 24.452648,24.452648 0 0 1 -1.94532,-1.47852 24.452648,24.452648 0 0 1 -1.78906,-1.66797 24.452648,24.452648 0 0 1 -1.61328,-1.83594 24.452648,24.452648 0 0 1 -1.42188,-1.98828 24.452648,24.452648 0 0 1 -1.21484,-2.11914 24.452648,24.452648 0 0 1 -1,-2.23047 24.452648,24.452648 0 0 1 -0.76953,-2.32031 24.452648,24.452648 0 0 1 -0.53516,-2.38476 24.452648,24.452648 0 0 1 -0.29492,-2.42774 24.452648,24.452648 0 0 1 -0.0606,-1.72851 24.452648,24.452648 0 0 1 0.1211,-2.44141 24.452648,24.452648 0 0 1 0.36523,-2.41602 24.452648,24.452648 0 0 1 0.60547,-2.36914 24.452648,24.452648 0 0 1 0.83789,-2.29687 24.452648,24.452648 0 0 1 1.0625,-2.19922 24.452648,24.452648 0 0 1 1.27735,-2.08398 24.452648,24.452648 0 0 1 1.48046,-1.94727 24.452648,24.452648 0 0 1 1.66602,-1.78711 24.452648,24.452648 0 0 1 1.83594,-1.61328 24.452648,24.452648 0 0 1 1.98828,-1.42188 24.452648,24.452648 0 0 1 2.11914,-1.21679 24.452648,24.452648 0 0 1 2.23242,-0.99805 24.452648,24.452648 0 0 1 2.31836,-0.77148 24.452648,24.452648 0 0 1 2.38477,-0.53516 24.452648,24.452648 0 0 1 2.42773,-0.29492 24.452648,24.452648 0 0 1 1.72852,-0.0606 z"
       id="path4140"
       inkscape:export-xdpi="77.139999"
       inkscape:export-ydpi="77.139999"
       inkscape:connector-curvature="0" />
    <g
       id="g4160"
       transform="matrix(0.70710678,-0.70710678,0.70710678,0.70710678,-90.510575,205.06969)">
      <circle
         transform="matrix(0,-1,1,0,0,0)"
         r="16.569923"
         cy="202.28572"
         cx="-211.79077"
         id="path4154"
         style="opacity:0.5;fill:none;fill-opacity:1;stroke:none;stroke-width:1;stroke-linecap:butt;stroke-linejoin:round;stroke-miterlimit:4;stroke-dasharray:none;stroke-dashoffset:0;stroke-opacity:1" />
      <path
         inkscape:connector-curvature="0"
         id="path4156"
         d="m 202.28572,195.22085 0,33.13984"
         style="fill:none;fill-rule:evenodd;stroke:#ff0000;stroke-width:3;stroke-linecap:round;stroke-linejoin:miter;stroke-miterlimit:4;stroke-dasharray:none;stroke-opacity:1" />
      <path
         inkscape:connector-curvature="0"
         id="path4158"
         d="m 185.7158,211.79077 33.13984,0"
         style="fill:none;fill-rule:evenodd;stroke:#ff0000;stroke-width:3;stroke-linecap:round;stroke-linejoin:miter;stroke-miterlimit:4;stroke-dasharray:none;stroke-opacity:1" />
    </g>
  </g>
</svg>
